<svg width="22" height="28" viewBox="0 0 22 28" fill="none" xmlns="http://www.w3.org/2000/svg">
<g filter="url(#filter0_d)">
<path d="M11 0C7.13 0 4 3.13 4 7C4 11.17 8.42 16.92 10.24 19.11C10.64 19.59 11.37 19.59 11.77 19.11C13.58 16.92 18 11.17 18 7C18 3.13 14.87 0 11 0ZM11 9.5C10.337 9.5 9.70107 9.23661 9.23223 8.76777C8.76339 8.29893 8.5 7.66304 8.5 7C8.5 6.33696 8.76339 5.70107 9.23223 5.23223C9.70107 4.76339 10.337 4.5 11 4.5C11.663 4.5 12.2989 4.76339 12.7678 5.23223C13.2366 5.70107 13.5 6.33696 13.5 7C13.5 7.66304 13.2366 8.29893 12.7678 8.76777C12.2989 9.23661 11.663 9.5 11 9.5Z" fill="#BDBDBD"/>
</g>
<defs>
<filter id="filter0_d" x="0" y="0" width="22" height="27.47" filterUnits="userSpaceOnUse" color-interpolation-filters="sRGB">
<feFlood flood-opacity="0" result="BackgroundImageFix"/>
<feColorMatrix in="SourceAlpha" type="matrix" values="0 0 0 0 0 0 0 0 0 0 0 0 0 0 0 0 0 0 127 0"/>
<feOffset dy="4"/>
<feGaussianBlur stdDeviation="2"/>
<feColorMatrix type="matrix" values="0 0 0 0 0 0 0 0 0 0 0 0 0 0 0 0 0 0 0.25 0"/>
<feBlend mode="normal" in2="BackgroundImageFix" result="effect1_dropShadow"/>
<feBlend mode="normal" in="SourceGraphic" in2="effect1_dropShadow" result="shape"/>
</filter>
</defs>
</svg>
